<svg width="184" height="31" viewBox="0 0 184 31" fill="none" xmlns="http://www.w3.org/2000/svg">
  <path d="M4.53794 1.39788V16.4247L17.601 1.39788H22.9799L10.9841 14.589L24.2606 30H18.9244L8.20925 17.6627L4.53794 21.6755V30H0.695862V1.39788H4.53794Z" fill="black"/>
  <path d="M42.8733 26.3714V30H29.3834V26.3714H34.2073V5.02651H29.3834V1.39788H42.8733V5.02651H38.0494V26.3714H42.8733Z" fill="black"/>
  <path d="M63.0656 0.757534C65.1431 0.757534 66.8365 1.04213 68.1456 1.61133C69.4833 2.18052 70.6501 2.92048 71.6462 3.83119V8.05748C71.0201 7.60212 70.3086 7.10407 69.5117 6.56334C68.7433 6.0226 67.8326 5.55301 66.7796 5.15458C65.755 4.72768 64.517 4.51423 63.0656 4.51423C60.9311 4.51423 59.0243 4.99805 57.3451 5.96568C55.666 6.93332 54.3426 8.27093 53.375 9.97852C52.4074 11.6576 51.9235 13.5645 51.9235 15.6989C51.9235 17.8334 52.4074 19.7402 53.375 21.4194C54.3426 23.0985 55.666 24.4361 57.3451 25.4322C59.0243 26.3998 60.9311 26.8836 63.0656 26.8836C65.257 26.8836 67.1211 26.5279 68.6579 25.8164C70.2232 25.0765 71.5039 24.3223 72.5 23.5539V27.3959C71.5039 28.2782 70.1948 29.0466 68.5725 29.7012C66.9788 30.3273 65.1431 30.6403 63.0656 30.6403C60.9026 30.6403 58.9104 30.2561 57.089 29.4877C55.2676 28.6908 53.6738 27.6094 52.3078 26.2433C50.9417 24.8772 49.8744 23.2977 49.106 21.5047C48.3661 19.6833 47.9961 17.748 47.9961 15.6989C47.9961 13.6498 48.3661 11.7288 49.106 9.93583C49.8744 8.1144 50.9417 6.52065 52.3078 5.15458C53.6738 3.7885 55.2676 2.72126 57.089 1.95285C58.9104 1.15597 60.9026 0.757534 63.0656 0.757534Z" fill="black"/>
  <path d="M97.0893 13.5218V17.1504H83.1724V26.3714H98.9249V30H79.3304V1.39788H98.9249V5.02651H83.1724V13.5218H97.0893Z" fill="black"/>
  <path d="M117.111 0.714844C119.217 0.714844 121.038 1.07059 122.575 1.78209C124.14 2.46512 125.35 3.4043 126.204 4.59961C127.057 5.79492 127.484 7.17522 127.484 8.74051C127.484 10.135 127.086 11.4157 126.289 12.5826C125.492 13.721 124.496 14.5748 123.301 15.144C124.155 15.3147 124.994 15.6705 125.819 16.2112C126.645 16.752 127.328 17.4919 127.869 18.4311C128.438 19.3703 128.722 20.5371 128.722 21.9316C128.722 23.5254 128.267 24.9626 127.356 26.2433C126.446 27.524 125.136 28.5485 123.429 29.317C121.75 30.0569 119.758 30.4269 117.452 30.4269C115.688 30.4269 113.838 30.3131 111.903 30.0854C109.996 29.8862 108.374 29.6443 107.036 29.3597V1.78209C108.516 1.44057 110.124 1.18443 111.86 1.01367C113.624 0.814453 115.375 0.714844 117.111 0.714844ZM116.855 4.34347C115.659 4.34347 114.578 4.38616 113.61 4.47154C112.671 4.55692 111.76 4.68499 110.878 4.85575V13.8206H117.58C119.516 13.8206 120.996 13.3368 122.02 12.3691C123.045 11.373 123.557 10.2204 123.557 8.91127C123.557 7.88672 123.244 7.04715 122.618 6.39258C121.992 5.70954 121.166 5.19727 120.142 4.85575C119.146 4.51423 118.05 4.34347 116.855 4.34347ZM110.878 26.286C111.903 26.4852 113.041 26.6275 114.293 26.7129C115.545 26.7698 116.57 26.7983 117.367 26.7983C119.501 26.7983 121.266 26.3571 122.66 25.4749C124.083 24.5926 124.795 23.4116 124.795 21.9316C124.795 20.3664 124.098 19.1995 122.703 18.4311C121.337 17.6342 119.658 17.2358 117.666 17.2358H110.878V26.286Z" fill="black"/>
  <path d="M149.768 26.3714V30H136.278V26.3714H141.102V5.02651H136.278V1.39788H149.768V5.02651H144.944V26.3714H149.768Z" fill="black"/>
  <path d="M183.024 1.39788V30H181.572L163.002 9.55162V30H159.16V1.39788H160.612L179.182 22.1024V1.39788H183.024Z" fill="black"/>
  </svg>
  